<?xml version="1.0" standalone="no"?>
<!DOCTYPE svg PUBLIC "-//W3C//DTD SVG 20010904//EN"
 "http://www.w3.org/TR/2001/REC-SVG-20010904/DTD/svg10.dtd">
<svg version="1.0" xmlns="http://www.w3.org/2000/svg"
 width="213.000000pt" height="265.000000pt" viewBox="0 0 213.000000 265.000000"
 preserveAspectRatio="xMidYMid meet">
<metadata>
Created by potrace 1.15, written by Peter Selinger 2001-2017
</metadata>
<g transform="translate(0.000000,265.000000) scale(0.100000,-0.100000)"
fill="#000000" stroke="none">
<path d="M332 2618 c-6 -18 -13 -53 -16 -78 -3 -25 -22 -137 -41 -250 -35
-197 -43 -244 -65 -375 -6 -33 -14 -82 -19 -110 -5 -27 -14 -77 -19 -110 -6
-33 -27 -154 -46 -270 -20 -115 -38 -220 -41 -232 l-5 -23 294 0 295 0 22 33
c77 109 199 161 374 161 219 -1 353 -102 401 -302 48 -201 -34 -396 -201 -476
-81 -39 -113 -46 -207 -46 -133 0 -249 44 -328 124 -42 42 -80 109 -80 141 0
58 15 55 -331 55 l-319 0 0 -43 c0 -38 13 -111 38 -207 35 -137 130 -284 244
-380 55 -47 171 -114 243 -141 277 -106 747 -106 1015 1 180 71 339 190 426
321 197 292 215 748 42 1043 -110 185 -295 305 -553 357 -79 16 -315 16 -385
0 -104 -24 -197 -65 -267 -118 -25 -19 -47 -32 -50 -30 -4 5 72 391 83 421 5
14 64 16 578 18 l571 3 0 270 0 270 -822 3 -821 2 -10 -32z"/>
</g>
</svg>
